<svg xmlns="http://www.w3.org/2000/svg" xmlns:xlink="http://www.w3.org/1999/xlink" width="96" height="96" viewBox="0 0 96 96">
  <defs>
    <clipPath id="clip-path">
      <rect id="Rectangle_32" data-name="Rectangle 32" width="96" height="96" fill="#fff"/>
    </clipPath>
  </defs>
  <g id="Play-button" opacity="0.8">
    <g id="Group_48" data-name="Group 48" clip-path="url(#clip-path)">
      <path id="Path_77" data-name="Path 77" d="M188.678,188.179a48,48,0,1,1,48-48,48.054,48.054,0,0,1-48,48m0-91.01a43.009,43.009,0,1,0,43.007,43.009,43.057,43.057,0,0,0-43.007-43.009M171.365,116.1v48.595c0,2.308,1.692,3.242,3.689,2.088l42.155-24.3c2-1.154,1.978-3.025-.02-4.179l-42.126-24.3c-2-1.152-3.7-.218-3.7,2.09" transform="translate(-140.678 -92.178)" fill="#fff"/>
    </g>
  </g>
</svg>
