<svg xmlns="http://www.w3.org/2000/svg" viewBox="0 0 1440 320" preserveAspectRatio="none"><path fill="#ffffff" fill-opacity="1" d="M0,160L26.7,144C53.3,128,107,96,160,112C213.3,128,267,192,320,202.7C373.3,213,427,171,480,170.7C533.3,171,587,213,640,229.3C693.3,245,747,235,800,240C853.3,245,907,267,960,234.7C1013.3,203,1067,117,1120,106.7C1173.3,96,1227,160,1280,186.7C1333.3,213,1387,203,1413,197.3L1440,192L1440,320L1413.3,320C1386.7,320,1333,320,1280,320C1226.7,320,1173,320,1120,320C1066.7,320,1013,320,960,320C906.7,320,853,320,800,320C746.7,320,693,320,640,320C586.7,320,533,320,480,320C426.7,320,373,320,320,320C266.7,320,213,320,160,320C106.7,320,53,320,27,320L0,320Z"></path></svg>